<svg xmlns="http://www.w3.org/2000/svg" width="16" height="16" viewBox="0 0 21 21" fill="none" color="#BCBDBD"><path d="M21 6.088a8.21 8.21 0 01-2.361.647 4.118 4.118 0 001.807-2.274 8.236 8.236 0 01-2.61.998 4.105 4.105 0 00-3.002-1.299c-2.654 0-4.605 2.477-4.005 5.048a11.672 11.672 0 01-8.474-4.296 4.117 4.117 0 001.272 5.49 4.094 4.094 0 01-1.861-.515c-.045 1.905 1.32 3.687 3.297 4.084a4.12 4.12 0 01-1.857.07 4.114 4.114 0 003.841 2.855A8.267 8.267 0 01.96 18.599a11.64 11.64 0 006.303 1.847c7.633 0 11.946-6.447 11.685-12.23A8.372 8.372 0 0021 6.089z" fill="currentColor"></path></svg>